<svg xmlns="http://www.w3.org/2000/svg" xmlns:xlink="http://www.w3.org/1999/xlink" width="1366" zoomAndPan="magnify" viewBox="0 0 1024.5 576" height="768" preserveAspectRatio="xMidYMid meet" version="1.0"><defs><g/></defs><g fill="#ffffff" fill-opacity="1"><g transform="translate(347.381209, 306.530572)"><g><path d="M 1.75 -36.421875 L 16.65625 -36.421875 C 17.894531 -36.421875 18.878906 -36.410156 19.609375 -36.390625 C 20.335938 -36.378906 20.914062 -36.34375 21.34375 -36.28125 C 21.78125 -36.226562 22.125 -36.144531 22.375 -36.03125 C 22.632812 -35.925781 22.910156 -35.785156 23.203125 -35.609375 C 24.660156 -34.660156 25.390625 -32.582031 25.390625 -29.375 L 25.390625 -27.03125 C 25.390625 -26.125 25.378906 -25.359375 25.359375 -24.734375 C 25.347656 -24.117188 25.304688 -23.59375 25.234375 -23.15625 C 25.160156 -22.71875 25.054688 -22.332031 24.921875 -22 C 24.796875 -21.675781 24.625 -21.351562 24.40625 -21.03125 C 23.96875 -20.300781 23.429688 -19.757812 22.796875 -19.40625 C 22.160156 -19.0625 21.242188 -18.816406 20.046875 -18.671875 C 21.140625 -18.347656 22.03125 -18.007812 22.71875 -17.65625 C 23.40625 -17.3125 23.945312 -16.875 24.34375 -16.34375 C 24.75 -15.820312 25.023438 -15.195312 25.171875 -14.46875 C 25.316406 -13.738281 25.390625 -12.828125 25.390625 -11.734375 L 25.390625 -6.109375 C 25.390625 -3.890625 25.644531 -1.851562 26.15625 0 L 16.375 0 C 16.09375 -0.945312 15.894531 -1.859375 15.78125 -2.734375 C 15.675781 -3.609375 15.625 -4.734375 15.625 -6.109375 L 15.625 -10.96875 C 15.625 -12.132812 15.40625 -12.972656 14.96875 -13.484375 C 14.53125 -13.992188 13.800781 -14.25 12.78125 -14.25 L 11.515625 -14.25 L 11.515625 0 L 1.75 0 Z M 12.890625 -22.171875 C 14.015625 -22.171875 14.757812 -22.367188 15.125 -22.765625 C 15.488281 -23.171875 15.671875 -24.007812 15.671875 -25.28125 C 15.671875 -26.488281 15.46875 -27.328125 15.0625 -27.796875 C 14.664062 -28.265625 13.941406 -28.5 12.890625 -28.5 L 11.515625 -28.5 L 11.515625 -22.171875 Z M 12.890625 -22.171875 "/></g></g><g transform="translate(374.52558, 306.530572)"><g><path d="M 7.421875 0.109375 C 5.859375 0.109375 4.738281 0.0078125 4.0625 -0.1875 C 3.394531 -0.382812 2.859375 -0.773438 2.453125 -1.359375 C 2.128906 -1.867188 1.875 -2.632812 1.6875 -3.65625 C 1.507812 -4.675781 1.421875 -5.84375 1.421875 -7.15625 L 1.421875 -22.0625 C 1.421875 -23.40625 1.5 -24.421875 1.65625 -25.109375 C 1.820312 -25.804688 2.125 -26.375 2.5625 -26.8125 C 3.4375 -27.6875 4.675781 -28.125 6.28125 -28.125 L 8.140625 -28.125 C 8.828125 -28.125 9.414062 -28.085938 9.90625 -28.015625 C 10.40625 -27.941406 10.84375 -27.820312 11.21875 -27.65625 C 11.601562 -27.488281 11.957031 -27.257812 12.28125 -26.96875 C 12.613281 -26.6875 12.960938 -26.304688 13.328125 -25.828125 L 13.984375 -25.015625 L 13.984375 -27.953125 L 22.65625 -27.953125 L 22.65625 0 L 13.984375 0 L 13.984375 -3.0625 C 13.617188 -2.363281 13.289062 -1.804688 13 -1.390625 C 12.707031 -0.972656 12.382812 -0.65625 12.03125 -0.4375 C 11.6875 -0.21875 11.296875 -0.0703125 10.859375 0 C 10.429688 0.0703125 9.867188 0.109375 9.171875 0.109375 Z M 13.984375 -18.453125 C 13.984375 -20.566406 13.328125 -21.625 12.015625 -21.625 C 10.742188 -21.625 10.109375 -20.566406 10.109375 -18.453125 L 10.109375 -9.828125 C 10.109375 -7.710938 10.757812 -6.65625 12.0625 -6.65625 C 13.34375 -6.65625 13.984375 -7.710938 13.984375 -9.828125 Z M 13.984375 -18.453125 "/></g></g><g transform="translate(398.77528, 306.530572)"><g><path d="M 1.578125 -27.953125 L 10.265625 -27.953125 L 10.265625 -24.953125 C 10.992188 -26.191406 11.796875 -27.019531 12.671875 -27.4375 C 13.546875 -27.851562 14.835938 -28.0625 16.546875 -28.0625 C 17.566406 -28.0625 18.445312 -28.003906 19.1875 -27.890625 C 19.9375 -27.785156 20.554688 -27.597656 21.046875 -27.328125 C 21.546875 -27.054688 21.945312 -26.703125 22.25 -26.265625 C 22.5625 -25.828125 22.804688 -25.28125 22.984375 -24.625 C 23.421875 -25.351562 23.820312 -25.945312 24.1875 -26.40625 C 24.550781 -26.863281 24.953125 -27.207031 25.390625 -27.4375 C 25.828125 -27.675781 26.328125 -27.835938 26.890625 -27.921875 C 27.453125 -28.015625 28.15625 -28.0625 29 -28.0625 C 30.34375 -28.0625 31.441406 -27.976562 32.296875 -27.8125 C 33.148438 -27.65625 33.820312 -27.359375 34.3125 -26.921875 C 34.8125 -26.484375 35.160156 -25.878906 35.359375 -25.109375 C 35.554688 -24.347656 35.65625 -23.367188 35.65625 -22.171875 L 35.65625 0 L 26.984375 0 L 26.984375 -18.625 C 26.984375 -20.625 26.289062 -21.625 24.90625 -21.625 C 23.625 -21.625 22.984375 -20.585938 22.984375 -18.515625 L 22.984375 0 L 14.3125 0 L 14.3125 -18.453125 C 14.3125 -20.566406 13.617188 -21.625 12.234375 -21.625 C 10.921875 -21.625 10.265625 -20.53125 10.265625 -18.34375 L 10.265625 0 L 1.578125 0 Z M 1.578125 -27.953125 "/></g></g><g transform="translate(436.023692, 306.530572)"><g><path d="M 9.78125 0 C 7.664062 0 6.078125 -0.109375 5.015625 -0.328125 C 3.960938 -0.546875 3.164062 -0.910156 2.625 -1.421875 C 2.332031 -1.671875 2.113281 -1.921875 1.96875 -2.171875 C 1.820312 -2.429688 1.703125 -2.769531 1.609375 -3.1875 C 1.515625 -3.613281 1.457031 -4.179688 1.4375 -4.890625 C 1.425781 -5.597656 1.421875 -6.550781 1.421875 -7.75 L 1.421875 -20.15625 C 1.421875 -21.351562 1.425781 -22.304688 1.4375 -23.015625 C 1.457031 -23.722656 1.515625 -24.296875 1.609375 -24.734375 C 1.703125 -25.171875 1.820312 -25.515625 1.96875 -25.765625 C 2.113281 -26.023438 2.332031 -26.285156 2.625 -26.546875 C 3.164062 -27.046875 3.960938 -27.40625 5.015625 -27.625 C 6.078125 -27.84375 7.664062 -27.953125 9.78125 -27.953125 L 14.578125 -27.953125 C 16.648438 -27.953125 18.210938 -27.84375 19.265625 -27.625 C 20.328125 -27.40625 21.132812 -27.046875 21.6875 -26.546875 C 21.9375 -26.285156 22.140625 -26.023438 22.296875 -25.765625 C 22.460938 -25.515625 22.59375 -25.171875 22.6875 -24.734375 C 22.78125 -24.296875 22.832031 -23.722656 22.84375 -23.015625 C 22.863281 -22.304688 22.875 -21.351562 22.875 -20.15625 L 22.875 -7.75 C 22.875 -6.550781 22.863281 -5.597656 22.84375 -4.890625 C 22.832031 -4.179688 22.78125 -3.613281 22.6875 -3.1875 C 22.59375 -2.769531 22.460938 -2.429688 22.296875 -2.171875 C 22.140625 -1.921875 21.9375 -1.671875 21.6875 -1.421875 C 21.132812 -0.910156 20.328125 -0.546875 19.265625 -0.328125 C 18.210938 -0.109375 16.648438 0 14.578125 0 Z M 14.203125 -18.296875 C 14.203125 -19.347656 14.035156 -20.109375 13.703125 -20.578125 C 13.378906 -21.054688 12.832031 -21.296875 12.0625 -21.296875 C 10.757812 -21.296875 10.109375 -20.296875 10.109375 -18.296875 L 10.109375 -9.5 C 10.109375 -8.445312 10.269531 -7.679688 10.59375 -7.203125 C 10.914062 -6.734375 11.460938 -6.5 12.234375 -6.5 C 13.546875 -6.5 14.203125 -7.5 14.203125 -9.5 Z M 14.203125 -18.296875 "/></g></g><g transform="translate(460.328009, 306.530572)"><g><path d="M 1.578125 -27.953125 L 10.265625 -27.953125 L 10.265625 -24.953125 C 10.628906 -25.578125 11 -26.085938 11.375 -26.484375 C 11.757812 -26.890625 12.1875 -27.207031 12.65625 -27.4375 C 13.132812 -27.675781 13.679688 -27.835938 14.296875 -27.921875 C 14.921875 -28.015625 15.648438 -28.0625 16.484375 -28.0625 C 18.234375 -28.0625 19.5625 -27.890625 20.46875 -27.546875 C 21.382812 -27.203125 22.039062 -26.613281 22.4375 -25.78125 C 22.550781 -25.519531 22.644531 -25.289062 22.71875 -25.09375 C 22.789062 -24.894531 22.84375 -24.566406 22.875 -24.109375 C 22.914062 -23.648438 22.941406 -22.992188 22.953125 -22.140625 C 22.972656 -21.285156 22.984375 -20.078125 22.984375 -18.515625 L 22.984375 0 L 14.3125 0 L 14.3125 -18.453125 C 14.3125 -20.566406 13.617188 -21.625 12.234375 -21.625 C 10.921875 -21.625 10.265625 -20.53125 10.265625 -18.34375 L 10.265625 0 L 1.578125 0 Z M 1.578125 -27.953125 "/></g></g><g transform="translate(484.905407, 306.530572)"><g><path d="M 9.0625 9.828125 C 6.988281 9.828125 5.429688 9.644531 4.390625 9.28125 C 3.359375 8.914062 2.550781 8.28125 1.96875 7.375 C 1.75 7.007812 1.582031 6.695312 1.46875 6.4375 C 1.363281 6.1875 1.28125 5.796875 1.21875 5.265625 C 1.164062 4.742188 1.128906 4.007812 1.109375 3.0625 C 1.097656 2.113281 1.09375 0.765625 1.09375 -0.984375 L 1.09375 -18.40625 C 1.09375 -19.3125 1.09375 -20.03125 1.09375 -20.5625 C 1.09375 -21.09375 1.109375 -21.507812 1.140625 -21.8125 C 1.179688 -22.125 1.21875 -22.378906 1.25 -22.578125 C 1.289062 -22.773438 1.363281 -23.019531 1.46875 -23.3125 C 1.90625 -24.550781 2.671875 -25.40625 3.765625 -25.875 C 4.859375 -26.351562 6.644531 -26.59375 9.125 -26.59375 L 29.65625 -26.59375 C 31.726562 -26.59375 33.28125 -26.410156 34.3125 -26.046875 C 35.351562 -25.679688 36.164062 -25.046875 36.75 -24.140625 C 36.96875 -23.773438 37.128906 -23.460938 37.234375 -23.203125 C 37.347656 -22.953125 37.429688 -22.5625 37.484375 -22.03125 C 37.546875 -21.507812 37.582031 -20.773438 37.59375 -19.828125 C 37.613281 -18.878906 37.625 -17.53125 37.625 -15.78125 L 37.625 -8.140625 C 37.625 -7.191406 37.625 -6.460938 37.625 -5.953125 C 37.625 -5.441406 37.601562 -5.039062 37.5625 -4.75 C 37.53125 -4.457031 37.492188 -4.210938 37.453125 -4.015625 C 37.421875 -3.816406 37.351562 -3.570312 37.25 -3.28125 C 37.03125 -2.65625 36.738281 -2.132812 36.375 -1.71875 C 36.007812 -1.300781 35.535156 -0.960938 34.953125 -0.703125 C 34.367188 -0.453125 33.640625 -0.269531 32.765625 -0.15625 C 31.890625 -0.0507812 30.832031 0 29.59375 0 L 18.78125 0 L 19.109375 -1.796875 C 18.566406 -1.035156 18.082031 -0.523438 17.65625 -0.265625 C 17.238281 -0.015625 16.648438 0.109375 15.890625 0.109375 L 14.859375 0.109375 C 13.691406 0.109375 12.890625 -0.0351562 12.453125 -0.328125 C 12.015625 -0.617188 11.796875 -1.144531 11.796875 -1.90625 C 11.796875 -2.019531 11.800781 -2.1875 11.8125 -2.40625 C 11.832031 -2.625 11.851562 -2.859375 11.875 -3.109375 C 11.894531 -3.367188 11.910156 -3.597656 11.921875 -3.796875 C 11.941406 -3.992188 11.972656 -4.148438 12.015625 -4.265625 L 13.59375 -13.21875 C 13.8125 -14.601562 14.175781 -15.546875 14.6875 -16.046875 C 15.195312 -16.554688 16.015625 -16.8125 17.140625 -16.8125 L 18.234375 -16.8125 C 19.148438 -16.8125 19.769531 -16.738281 20.09375 -16.59375 C 20.425781 -16.445312 20.773438 -16.085938 21.140625 -15.515625 L 21.40625 -15.015625 L 21.734375 -16.765625 L 26.921875 -16.765625 L 24.6875 -3.875 L 26.703125 -3.875 C 27.390625 -3.875 27.941406 -3.9375 28.359375 -4.0625 C 28.785156 -4.195312 29.113281 -4.425781 29.34375 -4.75 C 29.582031 -5.082031 29.738281 -5.546875 29.8125 -6.140625 C 29.882812 -6.742188 29.921875 -7.535156 29.921875 -8.515625 L 29.921875 -17.3125 C 29.921875 -18.257812 29.882812 -19.015625 29.8125 -19.578125 C 29.738281 -20.140625 29.582031 -20.578125 29.34375 -20.890625 C 29.113281 -21.203125 28.769531 -21.398438 28.3125 -21.484375 C 27.851562 -21.578125 27.242188 -21.625 26.484375 -21.625 L 12.015625 -21.625 C 11.316406 -21.625 10.757812 -21.566406 10.34375 -21.453125 C 9.925781 -21.347656 9.597656 -21.125 9.359375 -20.78125 C 9.128906 -20.4375 8.976562 -19.960938 8.90625 -19.359375 C 8.832031 -18.753906 8.796875 -17.960938 8.796875 -16.984375 L 8.796875 0.546875 C 8.796875 1.492188 8.832031 2.257812 8.90625 2.84375 C 8.976562 3.425781 9.128906 3.863281 9.359375 4.15625 C 9.597656 4.445312 9.941406 4.632812 10.390625 4.71875 C 10.847656 4.8125 11.460938 4.859375 12.234375 4.859375 L 29.921875 4.859375 L 29.921875 9.828125 Z M 17.421875 -5.078125 C 17.421875 -4.347656 17.726562 -3.984375 18.34375 -3.984375 C 19.113281 -3.984375 19.609375 -4.617188 19.828125 -5.890625 L 20.703125 -11.078125 C 20.773438 -11.441406 20.8125 -11.695312 20.8125 -11.84375 C 20.8125 -12.570312 20.5 -12.9375 19.875 -12.9375 C 19.113281 -12.9375 18.625 -12.316406 18.40625 -11.078125 L 17.46875 -5.890625 Z M 17.421875 -5.078125 "/></g></g></g><g fill="#ffffff" fill-opacity="1"><g transform="translate(523.628453, 306.530572)"><g><path d="M 7.265625 0 C 6.203125 -1.269531 5.222656 -2.695312 4.328125 -4.28125 C 3.441406 -5.863281 2.691406 -7.53125 2.078125 -9.28125 C 1.671875 -10.375 1.367188 -11.675781 1.171875 -13.1875 C 0.972656 -14.695312 0.875 -16.234375 0.875 -17.796875 L 0.875 -27.953125 L 9.5625 -27.953125 L 9.5625 -17.859375 C 9.5625 -16.515625 9.585938 -15.332031 9.640625 -14.3125 C 9.691406 -13.289062 9.800781 -12.367188 9.96875 -11.546875 C 10.132812 -10.734375 10.332031 -9.976562 10.5625 -9.28125 C 10.800781 -8.59375 11.117188 -7.898438 11.515625 -7.203125 C 11.878906 -7.898438 12.1875 -8.59375 12.4375 -9.28125 C 12.695312 -9.976562 12.910156 -10.734375 13.078125 -11.546875 C 13.242188 -12.367188 13.351562 -13.289062 13.40625 -14.3125 C 13.457031 -15.332031 13.484375 -16.515625 13.484375 -17.859375 L 13.484375 -27.953125 L 22.171875 -27.953125 L 22.171875 -17.796875 C 22.171875 -15.765625 22.015625 -13.925781 21.703125 -12.28125 C 21.398438 -10.644531 20.921875 -9.046875 20.265625 -7.484375 C 19.609375 -5.921875 18.921875 -4.554688 18.203125 -3.390625 C 17.492188 -2.222656 16.6875 -1.09375 15.78125 0 Z M 7.265625 0 "/></g></g></g><g fill="#ffffff" fill-opacity="1"><g transform="translate(546.621979, 306.530572)"><g><path d="M 9.828125 0 C 8.046875 0 6.609375 -0.0859375 5.515625 -0.265625 C 4.421875 -0.453125 3.570312 -0.804688 2.96875 -1.328125 C 2.375 -1.859375 1.96875 -2.609375 1.75 -3.578125 C 1.53125 -4.546875 1.421875 -5.789062 1.421875 -7.3125 L 1.421875 -11.1875 L 9.125 -11.1875 L 9.125 -9.890625 C 9.125 -7.734375 10.066406 -6.65625 11.953125 -6.65625 C 13.921875 -6.65625 14.90625 -7.785156 14.90625 -10.046875 L 14.90625 -14.90625 L 9.890625 -14.90625 C 8.828125 -14.90625 7.941406 -14.914062 7.234375 -14.9375 C 6.523438 -14.957031 5.929688 -15.003906 5.453125 -15.078125 C 4.984375 -15.148438 4.582031 -15.25 4.25 -15.375 C 3.925781 -15.5 3.617188 -15.671875 3.328125 -15.890625 C 2.597656 -16.359375 2.097656 -17.054688 1.828125 -17.984375 C 1.554688 -18.921875 1.421875 -20.332031 1.421875 -22.21875 L 1.421875 -28.390625 C 1.421875 -30.140625 1.53125 -31.53125 1.75 -32.5625 C 1.96875 -33.601562 2.40625 -34.414062 3.0625 -35 C 3.71875 -35.582031 4.65625 -35.960938 5.875 -36.140625 C 7.09375 -36.328125 8.722656 -36.421875 10.765625 -36.421875 L 15.671875 -36.421875 C 17.859375 -36.421875 19.476562 -36.289062 20.53125 -36.03125 C 21.582031 -35.78125 22.382812 -35.3125 22.9375 -34.625 C 23.1875 -34.332031 23.382812 -34.007812 23.53125 -33.65625 C 23.675781 -33.3125 23.796875 -32.875 23.890625 -32.34375 C 23.984375 -31.820312 24.046875 -31.175781 24.078125 -30.40625 C 24.117188 -29.644531 24.140625 -28.703125 24.140625 -27.578125 L 24.140625 -7.859375 C 24.140625 -6.148438 24.035156 -4.785156 23.828125 -3.765625 C 23.628906 -2.742188 23.210938 -1.953125 22.578125 -1.390625 C 21.941406 -0.828125 21.039062 -0.453125 19.875 -0.265625 C 18.707031 -0.0859375 17.160156 0 15.234375 0 Z M 14.90625 -26.65625 C 14.90625 -27.78125 14.75 -28.5625 14.4375 -29 C 14.132812 -29.4375 13.582031 -29.65625 12.78125 -29.65625 C 11.976562 -29.65625 11.421875 -29.4375 11.109375 -29 C 10.804688 -28.5625 10.65625 -27.78125 10.65625 -26.65625 L 10.65625 -24.578125 C 10.65625 -23.441406 10.804688 -22.65625 11.109375 -22.21875 C 11.421875 -21.789062 11.976562 -21.578125 12.78125 -21.578125 C 13.582031 -21.578125 14.132812 -21.789062 14.4375 -22.21875 C 14.75 -22.65625 14.90625 -23.441406 14.90625 -24.578125 Z M 14.90625 -26.65625 "/></g></g></g><g fill="#ffffff" fill-opacity="1"><g transform="translate(572.400931, 306.530572)"><g><path d="M 10.046875 0 C 7.898438 0 6.289062 -0.125 5.21875 -0.375 C 4.144531 -0.632812 3.332031 -1.109375 2.78125 -1.796875 C 2.53125 -2.085938 2.332031 -2.40625 2.1875 -2.75 C 2.039062 -3.101562 1.921875 -3.535156 1.828125 -4.046875 C 1.734375 -4.554688 1.664062 -5.191406 1.625 -5.953125 C 1.59375 -6.710938 1.578125 -7.675781 1.578125 -8.84375 L 1.578125 -28.5625 C 1.578125 -30.238281 1.675781 -31.59375 1.875 -32.625 C 2.082031 -33.664062 2.503906 -34.46875 3.140625 -35.03125 C 3.773438 -35.59375 4.675781 -35.960938 5.84375 -36.140625 C 7.007812 -36.328125 8.554688 -36.421875 10.484375 -36.421875 L 15.890625 -36.421875 C 18.148438 -36.421875 19.785156 -36.300781 20.796875 -36.0625 C 21.816406 -35.832031 22.582031 -35.390625 23.09375 -34.734375 C 23.5 -34.253906 23.800781 -33.515625 24 -32.515625 C 24.195312 -31.515625 24.296875 -30.378906 24.296875 -29.109375 L 24.296875 -25.5 L 16.21875 -25.5 L 16.21875 -26.546875 C 16.21875 -28.691406 15.304688 -29.765625 13.484375 -29.765625 C 12.648438 -29.765625 11.992188 -29.460938 11.515625 -28.859375 C 11.046875 -28.253906 10.8125 -27.425781 10.8125 -26.375 L 10.8125 -21.515625 L 15.84375 -21.515625 C 16.894531 -21.515625 17.773438 -21.503906 18.484375 -21.484375 C 19.191406 -21.472656 19.78125 -21.429688 20.25 -21.359375 C 20.726562 -21.285156 21.128906 -21.179688 21.453125 -21.046875 C 21.785156 -20.921875 22.097656 -20.75 22.390625 -20.53125 C 23.117188 -20.0625 23.617188 -19.359375 23.890625 -18.421875 C 24.160156 -17.492188 24.296875 -16.085938 24.296875 -14.203125 L 24.296875 -8.03125 C 24.296875 -6.28125 24.1875 -4.882812 23.96875 -3.84375 C 23.75 -2.8125 23.3125 -2.003906 22.65625 -1.421875 C 22.007812 -0.835938 21.066406 -0.453125 19.828125 -0.265625 C 18.585938 -0.0859375 16.96875 0 14.96875 0 Z M 15.078125 -11.84375 C 15.078125 -12.976562 14.921875 -13.765625 14.609375 -14.203125 C 14.296875 -14.640625 13.738281 -14.859375 12.9375 -14.859375 C 12.132812 -14.859375 11.578125 -14.640625 11.265625 -14.203125 C 10.960938 -13.765625 10.8125 -12.976562 10.8125 -11.84375 L 10.8125 -9.78125 C 10.8125 -8.644531 10.960938 -7.859375 11.265625 -7.421875 C 11.578125 -6.984375 12.132812 -6.765625 12.9375 -6.765625 C 13.738281 -6.765625 14.296875 -6.984375 14.609375 -7.421875 C 14.921875 -7.859375 15.078125 -8.644531 15.078125 -9.78125 Z M 15.078125 -11.84375 "/></g></g></g><g fill="#ffffff" fill-opacity="1"><g transform="translate(598.179883, 306.530572)"><g><path d="M 6.28125 -7.59375 C 7.445312 -7.59375 8.4375 -7.207031 9.25 -6.4375 C 10.070312 -5.675781 10.484375 -4.769531 10.484375 -3.71875 C 10.484375 -3.207031 10.363281 -2.710938 10.125 -2.234375 C 9.894531 -1.765625 9.585938 -1.351562 9.203125 -1 C 8.816406 -0.65625 8.359375 -0.382812 7.828125 -0.1875 C 7.304688 0.0078125 6.753906 0.109375 6.171875 0.109375 C 4.972656 0.109375 3.941406 -0.257812 3.078125 -1 C 2.222656 -1.75 1.796875 -2.65625 1.796875 -3.71875 C 1.796875 -4.8125 2.222656 -5.726562 3.078125 -6.46875 C 3.941406 -7.21875 5.007812 -7.59375 6.28125 -7.59375 Z M 6.28125 -7.59375 "/></g></g></g><g fill="#ffffff" fill-opacity="1"><g transform="translate(610.468588, 306.530572)"><g><path d="M 9.78125 0 C 7.664062 0 6.078125 -0.109375 5.015625 -0.328125 C 3.960938 -0.546875 3.164062 -0.910156 2.625 -1.421875 C 2.332031 -1.671875 2.113281 -1.921875 1.96875 -2.171875 C 1.820312 -2.429688 1.703125 -2.769531 1.609375 -3.1875 C 1.515625 -3.613281 1.457031 -4.179688 1.4375 -4.890625 C 1.425781 -5.597656 1.421875 -6.550781 1.421875 -7.75 L 1.421875 -20.15625 C 1.421875 -21.351562 1.425781 -22.304688 1.4375 -23.015625 C 1.457031 -23.722656 1.515625 -24.296875 1.609375 -24.734375 C 1.703125 -25.171875 1.820312 -25.515625 1.96875 -25.765625 C 2.113281 -26.023438 2.332031 -26.285156 2.625 -26.546875 C 3.164062 -27.046875 3.960938 -27.40625 5.015625 -27.625 C 6.078125 -27.84375 7.664062 -27.953125 9.78125 -27.953125 L 14.578125 -27.953125 C 16.648438 -27.953125 18.210938 -27.84375 19.265625 -27.625 C 20.328125 -27.40625 21.132812 -27.046875 21.6875 -26.546875 C 21.9375 -26.285156 22.140625 -26.023438 22.296875 -25.765625 C 22.460938 -25.515625 22.59375 -25.171875 22.6875 -24.734375 C 22.78125 -24.296875 22.832031 -23.722656 22.84375 -23.015625 C 22.863281 -22.304688 22.875 -21.351562 22.875 -20.15625 L 22.875 -7.75 C 22.875 -6.550781 22.863281 -5.597656 22.84375 -4.890625 C 22.832031 -4.179688 22.78125 -3.613281 22.6875 -3.1875 C 22.59375 -2.769531 22.460938 -2.429688 22.296875 -2.171875 C 22.140625 -1.921875 21.9375 -1.671875 21.6875 -1.421875 C 21.132812 -0.910156 20.328125 -0.546875 19.265625 -0.328125 C 18.210938 -0.109375 16.648438 0 14.578125 0 Z M 14.203125 -18.296875 C 14.203125 -19.347656 14.035156 -20.109375 13.703125 -20.578125 C 13.378906 -21.054688 12.832031 -21.296875 12.0625 -21.296875 C 10.757812 -21.296875 10.109375 -20.296875 10.109375 -18.296875 L 10.109375 -9.5 C 10.109375 -8.445312 10.269531 -7.679688 10.59375 -7.203125 C 10.914062 -6.734375 11.460938 -6.5 12.234375 -6.5 C 13.546875 -6.5 14.203125 -7.5 14.203125 -9.5 Z M 14.203125 -18.296875 "/></g></g></g><g fill="#ffffff" fill-opacity="1"><g transform="translate(634.772917, 306.530572)"><g><path d="M 1.578125 -27.953125 L 10.265625 -27.953125 L 10.265625 -24.359375 C 11.097656 -25.742188 11.925781 -26.71875 12.75 -27.28125 C 13.570312 -27.84375 14.617188 -28.125 15.890625 -28.125 C 16.179688 -28.125 16.425781 -28.101562 16.625 -28.0625 C 16.820312 -28.03125 17.085938 -27.941406 17.421875 -27.796875 L 16.765625 -18.34375 C 16.109375 -18.675781 15.535156 -18.953125 15.046875 -19.171875 C 14.554688 -19.390625 14.070312 -19.585938 13.59375 -19.765625 C 13.125 -19.953125 12.625 -20.132812 12.09375 -20.3125 C 11.5625 -20.5 10.953125 -20.703125 10.265625 -20.921875 L 10.265625 0 L 1.578125 0 Z M 1.578125 -27.953125 "/></g></g></g><g fill="#ffffff" fill-opacity="1"><g transform="translate(652.086342, 306.530572)"><g><path d="M 7.53125 9.234375 C 6.289062 9.234375 5.28125 9.164062 4.5 9.03125 C 3.71875 8.90625 3.097656 8.675781 2.640625 8.34375 C 2.191406 8.019531 1.882812 7.566406 1.71875 6.984375 C 1.550781 6.398438 1.46875 5.65625 1.46875 4.75 L 1.46875 2.1875 L 8.734375 2.1875 C 8.773438 3.09375 8.984375 3.726562 9.359375 4.09375 C 9.742188 4.457031 10.410156 4.640625 11.359375 4.640625 C 12.410156 4.640625 13.15625 4.457031 13.59375 4.09375 C 14.03125 3.726562 14.25 3.09375 14.25 2.1875 L 14.25 0 L 8.734375 0 C 7.785156 0 7.019531 -0.00390625 6.4375 -0.015625 C 5.851562 -0.0351562 5.367188 -0.0703125 4.984375 -0.125 C 4.609375 -0.1875 4.285156 -0.257812 4.015625 -0.34375 C 3.742188 -0.4375 3.476562 -0.554688 3.21875 -0.703125 C 2.601562 -1.109375 2.148438 -1.710938 1.859375 -2.515625 C 1.566406 -3.316406 1.421875 -4.425781 1.421875 -5.84375 C 1.421875 -5.914062 1.421875 -6.03125 1.421875 -6.1875 C 1.421875 -6.351562 1.4375 -6.53125 1.46875 -6.71875 L 1.46875 -20.15625 C 1.46875 -21.351562 1.476562 -22.304688 1.5 -23.015625 C 1.519531 -23.722656 1.570312 -24.296875 1.65625 -24.734375 C 1.75 -25.171875 1.867188 -25.515625 2.015625 -25.765625 C 2.160156 -26.023438 2.378906 -26.285156 2.671875 -26.546875 C 3.222656 -27.046875 4.023438 -27.40625 5.078125 -27.625 C 6.128906 -27.84375 7.710938 -27.953125 9.828125 -27.953125 L 14.96875 -27.953125 C 16.820312 -27.953125 18.273438 -27.890625 19.328125 -27.765625 C 20.390625 -27.640625 21.179688 -27.3125 21.703125 -26.78125 C 22.234375 -26.257812 22.570312 -25.476562 22.71875 -24.4375 C 22.863281 -23.394531 22.9375 -21.96875 22.9375 -20.15625 L 22.9375 2.1875 C 22.9375 3.132812 22.914062 3.90625 22.875 4.5 C 22.84375 5.101562 22.789062 5.613281 22.71875 6.03125 C 22.644531 6.445312 22.523438 6.789062 22.359375 7.0625 C 22.191406 7.34375 22.003906 7.609375 21.796875 7.859375 C 21.578125 8.078125 21.375 8.25 21.1875 8.375 C 21.007812 8.507812 20.789062 8.617188 20.53125 8.703125 C 20.28125 8.796875 19.953125 8.867188 19.546875 8.921875 C 19.148438 8.984375 18.625 9.03125 17.96875 9.0625 C 17.195312 9.132812 16.703125 9.179688 16.484375 9.203125 C 16.273438 9.222656 16.078125 9.234375 15.890625 9.234375 Z M 14.25 -18.296875 C 14.25 -19.347656 14.082031 -20.109375 13.75 -20.578125 C 13.425781 -21.054688 12.882812 -21.296875 12.125 -21.296875 C 10.8125 -21.296875 10.15625 -20.296875 10.15625 -18.296875 L 10.15625 -9.5 C 10.15625 -8.445312 10.316406 -7.679688 10.640625 -7.203125 C 10.972656 -6.734375 11.519531 -6.5 12.28125 -6.5 C 13.59375 -6.5 14.25 -7.5 14.25 -9.5 Z M 14.25 -18.296875 "/></g></g></g></svg>
