<svg xmlns="http://www.w3.org/2000/svg" xmlns:xlink="http://www.w3.org/1999/xlink" width="1060" zoomAndPan="magnify" viewBox="0 0 794.88 600.749999" height="801" preserveAspectRatio="xMidYMid meet" version="1.0"><defs><clipPath id="374a1dffd0"><path d="M 462 141 L 794.65625 141 L 794.65625 514 L 462 514 Z M 462 141 " clip-rule="nonzero"/></clipPath></defs><path stroke-linecap="butt" transform="matrix(0.749688, 0, 0, 0.749688, 90.121265, 54.990289)" fill="none" stroke-linejoin="miter" d="M 262.572548 214.044703 C 283.101922 214.044703 298.426006 219.557413 308.539588 230.582833 C 318.726117 241.608253 322.566257 257.880648 320.060006 279.400017 L 315.8395 315.331631 C 314.620243 328.790356 310.556052 339.664671 303.636506 347.949368 C 296.789908 356.166328 288.234266 362.74198 277.969579 367.686745 L 305.574813 398.027493 L 292.001458 508.323378 C 291.391829 511.439257 289.682785 513.002407 286.869114 513.002407 L 155.580121 513.002407 C 152.156822 513.002407 150.755197 511.439257 151.359615 508.323378 L 162.54135 418.671498 L 156.950483 411.142324 L 144.85691 508.323378 C 144.252492 511.439257 142.538237 513.002407 139.724566 513.002407 L 8.440783 513.002407 C 5.017484 513.002407 3.610649 511.439257 4.220278 508.323378 L 39.693368 218.718522 C 40.302997 215.602643 42.012041 214.044703 44.825712 214.044703 Z M 171.435675 343.843493 L 177.479857 296.167409 L 170.977151 296.167409 L 164.93297 343.843493 Z M 171.435675 343.843493 " stroke="#ffffff" stroke-width="17.520113" stroke-opacity="1" stroke-miterlimit="4"/><path stroke-linecap="butt" transform="matrix(0.749688, 0, 0, 0.749688, 309.484276, 54.990289)" fill="none" stroke-linejoin="miter" d="M 276.599577 214.044703 C 279.720667 214.044703 281.429711 215.258749 281.73192 217.692053 L 305.116649 400.877637 L 292.001818 508.323378 C 291.392189 511.439257 289.683145 513.002407 286.869474 513.002407 L 155.580481 513.002407 C 152.157182 513.002407 150.750347 511.439257 151.359975 508.323378 L 158.430625 449.465558 L 151.818499 449.465558 L 144.85727 508.323378 C 144.252852 511.439257 142.538597 513.002407 139.724926 513.002407 L 8.441144 513.002407 C 5.017844 513.002407 3.611009 511.439257 4.220638 508.323378 L 17.335469 400.877637 L 86.457975 217.692053 C 87.369812 215.258749 89.084067 214.044703 91.590318 214.044703 Z M 171.436035 296.167409 L 159.800987 382.171938 L 167.21553 382.171938 L 177.026903 296.167409 Z M 171.436035 296.167409 " stroke="#ffffff" stroke-width="17.520113" stroke-opacity="1" stroke-miterlimit="4"/><g clip-path="url(#374a1dffd0)"><path stroke-linecap="butt" transform="matrix(0.749688, 0, 0, 0.749688, 528.595606, 54.990289)" fill="none" stroke-linejoin="miter" d="M 262.570301 214.044703 C 283.709303 214.044703 299.184491 219.63036 308.995865 230.806884 C 318.880185 241.98862 322.56922 258.182857 320.057758 279.400017 L 299.528384 447.641883 C 297.016923 468.478677 289.378328 484.599967 276.60218 496.005753 C 263.826032 507.333382 246.985692 513.002407 226.070741 513.002407 L 69.120031 513.002407 C 48.288448 513.002407 32.886207 507.333382 22.928939 496.005753 C 12.966462 484.599967 9.199269 468.478677 11.632573 447.641883 L 32.281789 279.400017 C 34.715093 258.182857 42.317214 241.98862 55.093362 230.806884 C 67.86951 219.63036 84.70985 214.044703 105.61959 214.044703 Z M 177.48282 296.167409 L 170.980115 296.167409 L 163.107048 357.875372 L 171.891952 342.019818 Z M 154.212722 430.75986 L 160.715428 430.75986 L 169.156439 363.46624 L 160.715428 379.431215 Z M 154.212722 430.75986 " stroke="#ffffff" stroke-width="17.520113" stroke-opacity="1" stroke-miterlimit="4"/></g></svg>