<svg xmlns="http://www.w3.org/2000/svg" xmlns:xlink="http://www.w3.org/1999/xlink" width="1060" zoomAndPan="magnify" viewBox="0 0 794.88 600.749999" height="801" preserveAspectRatio="xMidYMid meet" version="1.0"><defs><clipPath id="c1f23b7847"><path d="M 462 141 L 794.65625 141 L 794.65625 514 L 462 514 Z M 462 141 " clip-rule="nonzero"/></clipPath></defs><path stroke-linecap="butt" transform="matrix(0.749688, 0, 0, 0.749688, 90.121265, 54.990289)" fill="none" stroke-linejoin="miter" d="M 323.254043 214.044703 C 326.677342 214.044703 328.084177 215.602643 327.474549 218.718522 L 314.469138 326.164263 L 232.231801 509.235215 C 231.241806 511.746677 229.532761 513.002407 227.099457 513.002407 L 68.21044 513.002407 C 66.006398 513.002407 64.599563 511.746677 63.989935 509.235215 L 26.578537 326.164263 L 39.693368 218.718522 C 40.302997 215.602643 42.012041 214.044703 44.825712 214.044703 L 175.656181 214.044703 C 179.07948 214.044703 180.486316 215.602643 179.876687 218.718522 L 164.93297 341.566504 L 154.668283 430.75986 L 160.259151 430.75986 L 172.347513 341.566504 L 187.29123 218.718522 C 187.973806 215.602643 189.724534 214.044703 192.538204 214.044703 Z M 323.254043 214.044703 " stroke="#ffffff" stroke-width="17.520113" stroke-opacity="1" stroke-miterlimit="4"/><path stroke-linecap="butt" transform="matrix(0.749688, 0, 0, 0.749688, 309.484276, 54.990289)" fill="none" stroke-linejoin="miter" d="M 262.572908 214.044703 C 283.711911 214.044703 299.187099 219.63036 308.993262 230.806884 C 318.882792 241.98862 322.566617 258.182857 320.060366 279.400017 L 299.525781 447.641883 C 297.01953 468.478677 289.375725 484.599967 276.599577 496.005753 C 263.828639 507.333382 246.983089 513.002407 226.073349 513.002407 L 69.122638 513.002407 C 48.285845 513.002407 32.888814 507.333382 22.926336 496.005753 C 12.963858 484.599967 9.201877 468.478677 11.635181 447.641883 L 16.767524 405.551456 C 17.4501 402.435577 19.200828 400.877637 22.014499 400.877637 L 153.18365 400.877637 C 156.685107 400.877637 158.091942 402.435577 157.404156 405.551456 L 154.210119 430.75986 L 160.712824 430.75986 L 165.391854 394.374931 L 83.607831 394.374931 C 62.771037 394.374931 47.374007 388.711117 37.411529 377.378277 C 27.449051 365.972491 23.687069 349.814727 26.120373 328.904987 L 32.279186 279.400017 C 34.712489 258.182857 42.31461 241.98862 55.090759 230.806884 C 67.866907 219.63036 84.712457 214.044703 105.622197 214.044703 Z M 166.757006 330.843293 L 173.374342 330.843293 L 177.480217 296.167409 L 170.977511 296.167409 Z M 166.757006 330.843293 " stroke="#ffffff" stroke-width="17.520113" stroke-opacity="1" stroke-miterlimit="4"/><g clip-path="url(#c1f23b7847)"><path stroke-linecap="butt" transform="matrix(0.749688, 0, 0, 0.749688, 528.595606, 54.990289)" fill="none" stroke-linejoin="miter" d="M 262.570301 214.044703 C 283.709303 214.044703 299.184491 219.63036 308.995865 230.806884 C 318.880185 241.98862 322.56922 258.182857 320.057758 279.400017 L 314.925415 321.490444 C 314.315786 324.606323 312.606742 326.164263 309.793071 326.164263 L 178.509288 326.164263 C 175.085989 326.164263 173.679154 324.606323 174.288783 321.490444 L 177.48282 296.167409 L 170.980115 296.167409 L 166.301085 332.666968 L 248.085108 332.666968 C 269.224111 332.666968 284.699299 338.294309 294.510672 349.548991 C 304.394992 360.725516 308.084027 376.88328 305.572566 398.027493 L 299.528384 447.641883 C 297.016923 468.478677 289.378328 484.599967 276.60218 496.005753 C 263.826032 507.333382 246.985692 513.002407 226.070741 513.002407 L 69.120031 513.002407 C 48.288448 513.002407 32.886207 507.333382 22.928939 496.005753 C 12.966462 484.599967 9.199269 468.478677 11.632573 447.641883 L 32.281789 279.400017 C 34.715093 258.182857 42.317214 241.98862 55.093362 230.806884 C 67.86951 219.63036 84.70985 214.044703 105.61959 214.044703 Z M 165.389247 396.198607 L 158.433228 396.198607 L 154.212722 430.75986 L 160.715428 430.75986 Z M 165.389247 396.198607 " stroke="#ffffff" stroke-width="17.520113" stroke-opacity="1" stroke-miterlimit="4"/></g></svg>